Coordinates
version=1
nRows=7
nColumns=63
inDegrees=yes

Units are S.I. units (second, meters, Newtons, ...)
If the header above contains a line with 'inDegrees', this indicates whether rotational values are in degrees (yes) or radians (no).

endheader
time	pelvis_tilt	pelvis_list	pelvis_rotation	pelvis_tx	pelvis_ty	pelvis_tz	hip_flexion_r	hip_adduction_r	hip_rotation_r	knee_angle_r	knee_angle_r_beta	ankle_angle_r	subtalar_angle_r	mtp_angle_r	hip_flexion_l	hip_adduction_l	hip_rotation_l	knee_angle_l	knee_angle_l_beta	ankle_angle_l	subtalar_angle_l	mtp_angle_l	L5_S1_Flex_Ext	L5_S1_Lat_Bending	L5_S1_axial_rotation	L4_L5_Flex_Ext	L4_L5_Lat_Bending	L4_L5_axial_rotation	L3_L4_Flex_Ext	L3_L4_Lat_Bending	L3_L4_axial_rotation	L2_L3_Flex_Ext	L2_L3_Lat_Bending	L2_L3_axial_rotation	L1_L2_Flex_Ext	L1_L2_Lat_Bending	L1_L2_axial_rotation	L1_T12_Flex_Ext	L1_T12_Lat_Bending	L1_T12_axial_rotation	Abs_r3	Abs_r2	Abs_r1	Abs_t1	Abs_t2	neck_flexion	neck_bending	neck_rotation	arm_flex_r	arm_add_r	arm_rot_r	elbow_flex_r	pro_sup_r	wrist_flex_r	wrist_dev_r	arm_flex_l	arm_add_l	arm_rot_l	elbow_flex_l	pro_sup_l	wrist_flex_l	wrist_dev_l
      0.00000000	     -0.51904685	     -2.94740686	     86.70553946	      0.15474576	      0.64593493	      0.78078938	      6.02670174	     -1.65903250	     -3.30176578	     11.41180397	      0.19917355	     31.90108189	      9.63831301	      0.00000000	      4.93605725	      1.50737127	     -8.23850893	      7.36009277	      0.12845785	     30.51937844	      4.80981206	      0.00000000	      0.26906379	     -0.34265309	      1.39785042	      0.49967836	     -0.45572861	      1.48521607	      0.44204490	     -0.83312673	      1.48521607	      0.30751300	     -0.83312673	      1.22311911	      0.24985263	     -0.69873818	      1.13575346	      0.15374305	     -0.53076964	      1.04838781	      1.92189572	     -3.87616030	      7.77442466	      0.00000000	      0.00000000	     18.62688148	      1.83509694	     -5.28608907	      0.85063156	     -6.84513446	     51.40382902	     51.63456170	      1.23094234	    -42.19232349	     22.95782938	     19.95907464	     -8.80215235	     96.54798527	     50.51038839	     68.83395454	      1.57084365	      6.85086983
      0.01666667	     -0.40835776	     -2.76648387	     86.94401928	      0.15416317	      0.64650350	      0.78017781	      5.64198705	     -1.60620220	     -3.88220970	     11.22774204	      0.19596107	     31.29437296	      9.80672277	      0.00000000	      4.68211852	      1.57099108	     -6.93625189	      7.11414544	      0.12416526	     30.43430470	      3.98986887	      0.00000000	      0.28959795	     -0.32346206	      1.30180735	      0.53781235	     -0.43020454	      1.38317031	      0.47578047	     -0.78646566	      1.38317031	      0.33098149	     -0.78646566	      1.13908143	      0.26892065	     -0.65960384	      1.05771847	      0.16547627	     -0.50104274	      0.97635551	      2.06856917	     -3.65906756	      7.24026192	      0.00000000	      0.00000000	     17.56227699	      1.35762840	     -5.68263281	      1.82236440	     -7.37329393	     51.80658843	     52.19667041	      1.35145487	    -45.29707656	     24.57179516	     20.01460850	     -8.76016424	     96.50810327	     50.80149034	     80.33145671	     -0.70268852	      6.74284742
      0.03333333	     -0.26519234	     -2.65660427	     87.53249708	      0.15304975	      0.64704349	      0.77969069	      5.28424160	     -1.50707725	     -4.46460026	     10.95996697	      0.19128751	     30.77094211	      9.56382600	      0.00000000	      4.54254443	      1.55779760	     -6.17001745	      6.92934092	      0.12093981	     30.50972127	      4.11524510	      0.00000000	      0.30323369	     -0.30843528	      1.19549240	      0.56313529	     -0.41021893	      1.27021068	      0.49818263	     -0.74992955	      1.27021068	      0.34656579	     -0.74992955	      1.04605585	      0.28158281	     -0.62896123	      0.97133758	      0.17326773	     -0.47776625	      0.89661930	      2.16596793	     -3.48908161	      6.64897010	      0.00000000	      0.00000000	     16.75000582	      1.16313867	     -6.39346577	      2.25325843	     -7.72032904	     52.11789631	     52.50995992	      1.36596027	    -46.31184737	     25.09395140	     20.45336578	     -8.51779058	     97.67039252	     50.91238686	     83.37779220	     -1.21409456	      7.29666863
      0.05000000	     -0.24072287	     -2.58069815	     87.93537391	      0.15247559	      0.64737567	      0.77918979	      5.04343990	     -1.50157193	     -4.84164186	     10.78472330	      0.18822893	     30.68077812	      9.54555817	      0.00000000	      4.50163883	      1.61986668	     -5.73099134	      6.90044267	      0.12043544	     30.68419614	      4.00277016	      0.00000000	      0.29908506	     -0.30538809	      1.12832368	      0.55543087	     -0.40616617	      1.19884391	      0.49136685	     -0.74252061	      1.19884391	      0.34182432	     -0.74252061	      0.98728322	      0.27773039	     -0.62274740	      0.91676299	      0.17089720	     -0.47304616	      0.84624276	      2.13633469	     -3.45461120	      6.27539783	      0.00000000	      0.00000000	     16.56550058	      1.07923593	     -6.38808816	      1.84082045	     -7.59012957	     50.84291179	     52.85398791	      1.35999285	    -47.29323318	     25.22997765	     20.36806952	     -8.70971321	     97.52347562	     51.35705849	     85.83902400	     -1.64743879	      7.85663171
      0.06666667	     -0.17400613	     -2.54886770	     88.45564288	      0.15177267	      0.64775860	      0.77874572	      4.82008900	     -1.45106563	     -5.32531916	     10.53639589	      0.18389480	     30.65356994	      9.60112359	      0.00000000	      4.48060165	      1.60591505	     -5.65796261	      6.81791627	      0.11899509	     30.87228487	      4.40952584	      0.00000000	      0.29209200	     -0.29730215	      1.06778186	      0.54244406	     -0.39541185	      1.13451823	      0.47987795	     -0.72286044	      1.13451823	      0.33383195	     -0.72286044	      0.93430913	      0.27123664	     -0.60625854	      0.86757276	      0.16690137	     -0.46052102	      0.80083639	      2.08638398	     -3.36314134	      5.93868237	      0.00000000	      0.00000000	     16.54653516	      1.12199022	     -6.10469775	      1.12423530	     -7.32592999	     49.45876766	     53.03141116	      1.31502037	    -47.39589743	     24.80975547	     20.50525909	     -8.74128040	     97.91012464	     51.63329191	     85.85516432	     -1.43340341	      8.37697346
      0.08333333	     -0.16622192	     -2.54351266	     88.85805278	      0.15133839	      0.64802952	      0.77831496	      4.65773992	     -1.44529798	     -5.65296412	     10.31603086	      0.18004870	     30.81236551	      9.69557328	      0.00000000	      4.52167809	      1.60851264	     -6.08396294	      6.81956821	      0.11902392	     31.14569081	      5.15020746	      0.00000000	      0.28125424	     -0.29743917	      1.04843344	      0.52231725	     -0.39559409	      1.11396053	      0.46207259	     -0.72319359	      1.11396053	      0.32144547	     -0.72319359	      0.91737926	      0.26117269	     -0.60653795	      0.85185217	      0.16070867	     -0.46073327	      0.78632508	      2.00897092	     -3.36469133	      5.83107227	      0.00000000	      0.00000000	     16.73589395	      1.21520104	     -5.78124729	      0.05952094	     -6.80000918	     47.39837747	     53.14815253	      1.25279288	    -47.47873665	     24.18313828	     20.52775124	     -8.88282511	     97.85700795	     51.97553984	     85.48520041	     -0.82868427	      8.90563841
      0.10000000	     -0.16500196	     -2.50780474	     89.08369322	      0.15131669	      0.64839313	      0.77804341	      4.47228111	     -1.37246395	     -5.25198793	     10.04702806	      0.17535372	     30.90767943	      9.10693947	      0.00000000	      4.61386031	      1.47056857	     -8.31897377	      7.02070231	      0.12253437	     31.80534696	      8.04240284	      0.00000000	      0.26441322	     -0.29837810	      1.06653747	      0.49104178	     -0.39684287	      1.13319606	      0.43440447	     -0.72547651	      1.13319606	      0.30219787	     -0.72547651	      0.93322028	      0.24553411	     -0.60845262	      0.86656169	      0.15108571	     -0.46218768	      0.79990310	      1.88867716	     -3.37531275	      5.93176142	      0.00000000	      0.00000000	     16.91813947	      1.32564972	     -5.34229602	     -1.09191851	     -6.11883798	     44.88508930	     53.14934753	      1.18439671	    -47.16066651	     23.38352242	     20.67989679	     -9.00761033	     97.96665102	     52.28434264	     85.39743377	     -0.55865898	      9.16040973
